<svg width="33" height="33" viewBox="0 0 33 33" fill="none" xmlns="http://www.w3.org/2000/svg">
<g clip-path="url(#clip0_40_28503)">
<path d="M23.0309 13.382C23.0416 13.5356 23.0416 13.6906 23.0416 13.8456C23.0416 18.5918 19.4289 24.064 12.823 24.064C10.87 24.0668 8.95753 23.5068 7.31445 22.4511C7.59765 22.4849 7.88263 22.5019 8.16785 22.5023C9.7861 22.5047 11.3581 21.9621 12.6303 20.962C11.8808 20.9482 11.1543 20.7004 10.5527 20.2532C9.95108 19.8059 9.50432 19.1818 9.27511 18.468C9.81312 18.572 10.3678 18.5511 10.8965 18.4069C10.0838 18.2426 9.35297 17.8024 8.82776 17.1608C8.3026 16.5193 8.01543 15.7159 8.01496 14.8868V14.8412C8.51445 15.1193 9.07345 15.2734 9.64488 15.2907C8.88465 14.7828 8.34645 14.0041 8.13999 13.1135C7.93348 12.2228 8.07416 11.2868 8.53336 10.4962C9.43505 11.6056 10.56 12.5131 11.8352 13.1596C13.1103 13.806 14.5072 14.1772 15.935 14.2488C15.7565 13.479 15.8365 12.6718 16.1629 11.952C16.4893 11.2322 17.0438 10.6401 17.7406 10.2672C18.4374 9.89422 19.2377 9.76137 20.0176 9.88901C20.7975 10.0167 21.5136 10.3978 22.0552 10.9733C22.8593 10.8147 23.6304 10.5198 24.3351 10.1015C24.0672 10.9331 23.5061 11.639 22.7564 12.0877C23.4682 12.0036 24.1633 11.8132 24.8188 11.5231C24.3376 12.2437 23.7322 12.8731 23.0309 13.382Z" fill="white"/>
</g>
<defs>
<clipPath id="clip0_40_28503">
<rect width="32" height="32" fill="white" transform="translate(0.203125 0.953125)"/>
</clipPath>
</defs>
</svg>
