<svg width="108" height="108" viewBox="0 0 108 108" fill="none" xmlns="http://www.w3.org/2000/svg">
<path d="M1.19434 74.5C6.97702 88.6884 18.3119 100.023 32.5003 105.806" stroke="white" stroke-width="2"/>
<path d="M1.19434 74.5C6.97702 88.6884 18.3119 100.023 32.5003 105.806" stroke="white" stroke-width="2"/>
<path d="M32.3062 1C18.1178 6.78269 6.78292 18.1176 1.00024 32.3059" stroke="white" stroke-width="2"/>
<path d="M106.306 32.3062C100.523 18.1178 89.1886 6.78292 75.0002 1.00023" stroke="white" stroke-width="2"/>
<path d="M75 106.306C89.1884 100.523 100.523 89.1886 106.306 75.0002" stroke="white" stroke-width="2"/>
<path d="M6 72C11.3567 85.1433 21.8567 95.6433 35 101" stroke="#AAAAAA" stroke-width="0.5"/>
<path d="M6 72C11.3567 85.1433 21.8567 95.6433 35 101" stroke="#AAAAAA" stroke-width="0.5"/>
<path d="M34 6C21.3099 11.172 11.172 21.3099 6 34" stroke="#AAAAAA" stroke-width="0.5"/>
<path d="M101 34C95.828 21.3099 85.6901 11.172 73 6" stroke="#AAAAAA" stroke-width="0.5"/>
<path d="M73 101C85.6901 95.828 95.828 85.6901 101 73" stroke="#AAAAAA" stroke-width="0.5"/>
<path d="M71 60.3159C69.0265 65.1582 65.158 69.0266 60.3158 71.0001" stroke="#AAAAAA" stroke-width="0.5"/>
<path d="M71 60.3159C69.0265 65.1582 65.158 69.0266 60.3158 71.0001" stroke="#AAAAAA" stroke-width="0.5"/>
<path d="M60.6841 36C65.3594 37.9055 69.0944 41.6405 70.9999 46.3158" stroke="#AAAAAA" stroke-width="0.5"/>
<path d="M36 46.3159C37.9055 41.6406 41.6405 37.9056 46.3158 36.0001" stroke="#AAAAAA" stroke-width="0.5"/>
<path d="M46.3159 71C41.6406 69.0945 37.9056 65.3595 36.0001 60.6842" stroke="#AAAAAA" stroke-width="0.5"/>
<path d="M75.5 31.5L100.5 6.5" stroke="white"/>
<path d="M75.5 76L100.5 101" stroke="white"/>
<path d="M31 31L6 6" stroke="white"/>
<path d="M31 76.5L6 101.5" stroke="white"/>
<path d="M14.8062 50.144L15.8332 49.117L18.9922 49.364L19.8502 50.742L19.2782 51.353L18.2252 49.897L15.8332 50.183V56.267L18.2252 56.553L19.2782 55.097L19.8502 55.708L18.9922 57.086L15.9892 57.333L14.8062 56.397V50.144Z" fill="white"/>
<path d="M32.6812 57.294V49.156H33.5002V56.475H37.5692V57.294H32.6812Z" fill="white"/>
<path d="M51.7782 49.975V49.156H54.2222V49.975H53.4032V56.475H54.2222V57.294H51.7782V56.475H52.5972V49.975H51.7782Z" fill="white"/>
<path d="M68.4312 50.144L69.4582 49.117L72.6172 49.364L73.4752 50.742L72.9032 51.353L71.8502 49.897L69.4582 50.183V56.267L71.8502 56.553L72.9032 55.097L73.4752 55.708L72.6172 57.086L69.6142 57.333L68.4312 56.397V50.144Z" fill="white"/>
<path d="M86.3062 57.294V49.156H87.1252V52.575L90.7782 49L91.3502 49.572L87.7752 53.225L91.3502 56.878L90.7782 57.45L87.1252 53.875V57.294H86.3062Z" fill="white"/>
</svg>
