<svg width="1585" height="724" viewBox="0 0 1585 724" fill="none" xmlns="http://www.w3.org/2000/svg">
<path d="M0.500031 29.685L0.500025 135.272C0.500025 139.846 2.37108 144.232 5.70059 147.477L49.7841 190.44C55.2007 195.719 58.2357 202.844 58.2357 210.264L58.2357 486.288C58.2357 493.709 55.2005 500.833 49.7841 506.112L9.25362 545.613C3.6479 551.076 0.500006 558.457 0.500006 566.153L0.5 694.222C0.499999 710.357 14.0499 723.407 30.7268 723.407H201.085H201.087L201.189 723.407L1553.73 723.407C1570.41 723.407 1583.96 710.357 1583.96 694.222V567.113C1583.96 558.843 1580.32 550.966 1573.97 545.434L1528.95 506.253C1522.8 500.907 1519.3 493.302 1519.3 485.329V211.224C1519.3 203.25 1522.8 195.646 1528.95 190.299L1578.46 147.213C1581.96 144.167 1583.96 139.829 1583.96 135.272V29.6852C1583.96 13.55 1570.41 0.500108 1553.73 0.500108L1346.28 0.500111L1346.2 0.500012L30.7269 0.5C14.0499 0.5 0.500031 13.5499 0.500031 29.685Z" stroke="url(#paint0_linear_40_42774)"/>
<defs>
<linearGradient id="paint0_linear_40_42774" x1="-185" y1="43.9999" x2="2039.5" y2="1074" gradientUnits="userSpaceOnUse">
<stop stop-color="#00FFE6" stop-opacity="0.6"/>
<stop offset="0.479167" stop-color="white" stop-opacity="0"/>
<stop offset="1" stop-color="#00FFE6" stop-opacity="0.6"/>
</linearGradient>
</defs>
</svg>
