<svg width="1704" height="546" viewBox="0 0 1704 546" fill="none" xmlns="http://www.w3.org/2000/svg">
<path d="M1703.5 520.447V25.559C1703.5 23.4347 1702.68 21.3968 1701.21 19.8855L1684.67 2.85387C1683.21 1.34831 1681.23 0.500002 1679.15 0.500002L24.85 0.5C22.7741 0.5 20.7882 1.3483 19.3261 2.85386L2.77992 19.8919C1.31832 21.397 0.5 23.435 0.5 25.559L0.5 520.447C0.5 522.571 1.31832 524.609 2.77992 526.115L19.3261 543.146C20.7882 544.652 22.7741 545.5 24.85 545.5L1679.16 545.5C1681.23 545.5 1683.22 544.652 1684.68 543.146L1701.22 526.115C1702.68 524.609 1703.5 522.571 1703.5 520.447Z" stroke="white" stroke-opacity="0.3" stroke-miterlimit="10"/>
</svg>
