<svg width="77" height="148" viewBox="0 0 77 148" fill="none" xmlns="http://www.w3.org/2000/svg">
<path d="M21.0751 4V2.01887H19.094H4.02832H2.04719V4V117.536V118.357L2.62745 118.937L28.9921 145.302L29.5723 145.882H30.393H30.424H30.4551H30.4862H30.5173H30.5483H30.5794H30.6105H30.6416H30.6726H30.7037H30.7348H30.7659H30.797H30.8281H30.8591H30.8902H30.9213H30.9524H30.9835H31.0146H31.0457H31.0768H31.1079H31.139H31.1701H31.2012H31.2323H31.2634H31.2945H31.3256H31.3567H31.3878H31.4189H31.45H31.4811H31.5122H31.5433H31.5744H31.6055H31.6366H31.6677H31.6989H31.73H31.7611H31.7922H31.8233H31.8544H31.8856H31.9167H31.9478H31.9789H32.01H32.0412H32.0723H32.1034H32.1345H32.1657H32.1968H32.2279H32.2591H32.2902H32.3213H32.3525H32.3836H32.4147H32.4459H32.477H32.5081H32.5393H32.5704H32.6015H32.6327H32.6638H32.695H32.7261H32.7573H32.7884H32.8195H32.8507H32.8818H32.913H32.9441H32.9753H33.0064H33.0376H33.0687H33.0999H33.131H33.1622H33.1933H33.2245H33.2557H33.2868H33.318H33.3491H33.3803H33.4114H33.4426H33.4738H33.5049H33.5361H33.5673H33.5984H33.6296H33.6607H33.6919H33.7231H33.7542H33.7854H33.8166H33.8478H33.8789H33.9101H33.9413H33.9724H34.0036H34.0348H34.066H34.0971H34.1283H34.1595H34.1907H34.2218H34.253H34.2842H34.3154H34.3465H34.3777H34.4089H34.4401H34.4713H34.5024H34.5336H34.5648H34.596H34.6272H34.6584H34.6895H34.7207H34.7519H34.7831H34.8143H34.8455H34.8767H34.9078H34.939H34.9702H35.0014H35.0326H35.0638H35.095H35.1262H35.1574H35.1886H35.2198H35.2509H35.2821H35.3133H35.3445H35.3757H35.4069H35.4381H35.4693H35.5005H35.5317H35.5629H35.5941H35.6253H35.6565H35.6877H35.7189H35.7501H35.7813H35.8125H35.8437H35.8749H35.9061H35.9373H35.9685H35.9997H36.0309H36.0621H36.0933H36.1245H36.1557H36.1869H36.2181H36.2494H36.2806H36.3118H36.343H36.3742H36.4054H36.4366H36.4678H36.499H36.5302H36.5614H36.5926H36.6238H36.655H36.6863H36.7175H36.7487H36.7799H36.8111H36.8423H36.8735H36.9047H36.9359H36.9672H36.9984H37.0296H37.0608H37.092H37.1232H37.1544H37.1856H37.2169H37.2481H37.2793H37.3105H37.3417H37.3729H37.4041H37.4353H37.4666H37.4978H37.529H37.5602H37.5914H37.6226H37.6538H37.6851H37.7163H37.7475H37.7787H37.8099H37.8411H37.8723H37.9036H37.9348H37.966H37.9972H38.0284H38.0596H38.0909H38.1221H38.1533H38.1845H38.2157H38.2469H38.2782H38.3094H38.3406H38.3718H38.403H38.4342H38.4654H38.4967H38.5279H38.5591H38.5903H38.6215H38.6527H38.684H38.7152H38.7464H38.7776H38.8088H38.84H38.8713H38.9025H38.9337H38.9649H38.9961H39.0273H39.0585H39.0898H39.121H39.1522H39.1834H39.2146H39.2458H39.277H39.3083H39.3395H39.3707H39.4019H39.4331H39.4643H39.4955H39.5267H39.558H39.5892H39.6204H39.6516H39.6828H39.714H39.7452H39.7764H39.8077H39.8389H39.8701H39.9013H39.9325H39.9637H39.9949H40.0261H40.0573H40.0886H40.1198H40.151H40.1822H40.2134H40.2446H40.2758H40.307H40.3382H40.3694H40.4006H40.4318H40.463H40.4942H40.5255H40.5567H40.5879H40.6191H40.6503H40.6815H40.7127H40.7439H40.7751H40.8063H40.8375H40.8687H40.8999H40.9311H40.9623H40.9935H41.0247H41.0559H41.0871H41.1183H41.1495H41.1807H41.2119H41.2431H41.2743H41.3055H41.3367H41.3679H41.3991H41.4303H41.4615H41.4926H41.5238H41.555H41.5862H41.6174H41.6486H41.6798H41.711H41.7422H41.7734H41.8046H41.8358H41.8669H41.8981H41.9293H41.9605H41.9917H42.0229H42.0541H42.0852H42.1164H42.1476H42.1788H42.21H42.2412H42.2723H42.3035H42.3347H42.3659H42.3971H42.4282H42.4594H42.4906H42.5218H42.5529H42.5841H42.6153H42.6465H42.6776H42.7088H42.74H42.7712H42.8023H42.8335H42.8647H42.8958H42.927H42.9582H42.9893H43.0205H43.0517H43.0828H43.114H43.1452H43.1763H43.2075H43.2387H43.2698H43.301H43.3321H43.3633H43.3945H43.4256H43.4568H43.4879H43.5191H43.5502H43.5814H43.6126H43.6437H43.6749H43.706H43.7372H43.7683H43.7995H43.8306H43.8618H43.8929H43.924H43.9552H43.9863H44.0175H44.0486H44.0798H44.1109H44.142H44.1732H44.2043H44.2355H44.2666H44.2977H44.3289H44.36H44.3911H44.4223H44.4534H44.4845H44.5157H44.5468H44.5779H44.6091H44.6402H44.6713H44.7024H44.7336H44.7647H44.7958H44.8269H44.858H44.8892H44.9203H44.9514H44.9825H45.0136H45.0447H45.0759H45.107H45.1381H45.1692H45.2003H45.2314H45.2625H45.2936H45.3247H45.3558H45.3869H45.418H45.4491H45.4802H45.5113H45.5424H45.5735H45.6046H45.6357H45.6668H45.6979H45.729H45.7601H45.7912H45.8223H45.8534H45.8845H45.9155H45.9466H45.9777H46.0088H46.0399H46.071H46.102H46.1331H46.1642H46.1953H46.2263H46.2574H46.2885H46.3196H46.3506H47.1713L47.7515 145.302L74.1159 118.937L74.6961 118.357V117.536V4V2.01887H72.715H57.6496H55.6685V4V110.472L39.2857 126.854H37.4579L21.0751 110.472V4Z" fill="#E5E5E5" stroke="#E5E5E5" stroke-width="3.96226"/>
</svg>
